<svg width="321" height="65" viewBox="0 0 321 65" fill="none" xmlns="http://www.w3.org/2000/svg">
<path d="M101.891 4.788C101.891 5.38 101.783 5.936 101.567 6.456C101.351 6.968 101.043 7.412 100.643 7.788C100.251 8.164 99.7788 8.46 99.2268 8.676C98.6828 8.892 98.0828 9 97.4268 9H94.2948V0.599999H97.4268C98.0828 0.599999 98.6828 0.707999 99.2268 0.924C99.7788 1.132 100.251 1.424 100.643 1.8C101.043 2.176 101.351 2.62 101.567 3.132C101.783 3.644 101.891 4.196 101.891 4.788ZM100.343 4.812C100.343 4.396 100.271 4.016 100.127 3.672C99.9908 3.32 99.7948 3.016 99.5388 2.76C99.2908 2.504 98.9868 2.304 98.6268 2.16C98.2668 2.016 97.8668 1.944 97.4268 1.944H95.7708V7.656H97.4268C97.8668 7.656 98.2668 7.588 98.6268 7.452C98.9868 7.308 99.2908 7.112 99.5388 6.864C99.7948 6.608 99.9908 6.308 100.127 5.964C100.271 5.612 100.343 5.228 100.343 4.812ZM109.91 0.599999V1.92H105.158V4.104H109.37V5.424H105.158V7.68H109.97V9H103.682V0.599999H109.91ZM112.969 2.796C112.969 2.964 112.997 3.108 113.053 3.228C113.109 3.348 113.209 3.46 113.353 3.564C113.505 3.668 113.709 3.764 113.965 3.852C114.229 3.94 114.561 4.032 114.961 4.128C115.401 4.24 115.789 4.364 116.125 4.5C116.469 4.636 116.753 4.804 116.977 5.004C117.201 5.196 117.369 5.424 117.481 5.688C117.601 5.944 117.661 6.248 117.661 6.6C117.661 7 117.585 7.356 117.433 7.668C117.289 7.98 117.085 8.244 116.821 8.46C116.557 8.676 116.241 8.84 115.873 8.952C115.505 9.064 115.101 9.12 114.661 9.12C114.013 9.12 113.393 9.012 112.801 8.796C112.209 8.572 111.661 8.232 111.157 7.776L112.045 6.72C112.453 7.072 112.865 7.344 113.281 7.536C113.697 7.72 114.169 7.812 114.697 7.812C115.153 7.812 115.513 7.716 115.777 7.524C116.049 7.332 116.185 7.072 116.185 6.744C116.185 6.592 116.157 6.456 116.101 6.336C116.053 6.216 115.957 6.108 115.813 6.012C115.677 5.908 115.485 5.812 115.237 5.724C114.997 5.636 114.681 5.544 114.289 5.448C113.841 5.344 113.441 5.228 113.089 5.1C112.745 4.972 112.453 4.812 112.213 4.62C111.981 4.428 111.801 4.196 111.673 3.924C111.553 3.652 111.493 3.32 111.493 2.928C111.493 2.56 111.565 2.228 111.709 1.932C111.853 1.628 112.049 1.368 112.297 1.152C112.553 0.935999 112.857 0.771999 113.209 0.659999C113.561 0.539999 113.945 0.48 114.361 0.48C114.977 0.48 115.529 0.572 116.017 0.756C116.513 0.932 116.977 1.192 117.409 1.536L116.617 2.652C116.233 2.372 115.853 2.16 115.477 2.016C115.101 1.864 114.721 1.788 114.337 1.788C113.905 1.788 113.569 1.888 113.329 2.088C113.089 2.28 112.969 2.516 112.969 2.796ZM125.624 0.599999V1.92H120.872V4.104H125.084V5.424H120.872V7.68H125.684V9H119.396V0.599999H125.624ZM133.303 6.408V0.599999H134.755V9H133.519L128.887 3.024V9H127.435V0.599999H128.803L133.303 6.408ZM140.36 7.056L142.88 0.599999H144.476L140.984 9.06H139.688L136.196 0.599999H137.828L140.36 7.056ZM153.812 4.788C153.812 5.38 153.704 5.94 153.488 6.468C153.272 6.996 152.968 7.46 152.576 7.86C152.184 8.252 151.72 8.564 151.184 8.796C150.648 9.028 150.056 9.144 149.408 9.144C148.76 9.144 148.168 9.032 147.632 8.808C147.096 8.576 146.636 8.264 146.252 7.872C145.868 7.48 145.568 7.02 145.352 6.492C145.136 5.964 145.028 5.404 145.028 4.812C145.028 4.22 145.136 3.66 145.352 3.132C145.568 2.604 145.872 2.144 146.264 1.752C146.656 1.352 147.12 1.036 147.656 0.804C148.192 0.572 148.784 0.456 149.432 0.456C150.08 0.456 150.672 0.572 151.208 0.804C151.744 1.028 152.204 1.336 152.588 1.728C152.972 2.12 153.272 2.58 153.488 3.108C153.704 3.636 153.812 4.196 153.812 4.788ZM152.264 4.812C152.264 4.404 152.192 4.02 152.048 3.66C151.912 3.292 151.716 2.972 151.46 2.7C151.212 2.428 150.912 2.212 150.56 2.052C150.208 1.892 149.824 1.812 149.408 1.812C148.992 1.812 148.608 1.892 148.256 2.052C147.912 2.204 147.616 2.416 147.368 2.688C147.12 2.952 146.924 3.268 146.78 3.636C146.644 3.996 146.576 4.38 146.576 4.788C146.576 5.196 146.644 5.584 146.78 5.952C146.924 6.312 147.12 6.628 147.368 6.9C147.624 7.172 147.928 7.388 148.28 7.548C148.632 7.708 149.016 7.788 149.432 7.788C149.848 7.788 150.228 7.712 150.572 7.56C150.924 7.4 151.224 7.188 151.472 6.924C151.72 6.652 151.912 6.336 152.048 5.976C152.192 5.608 152.264 5.22 152.264 4.812ZM155.596 9V0.599999H157.072V7.656H161.488V9H155.596ZM165.087 7.056L167.607 0.599999H169.203L165.711 9.06H164.415L160.923 0.599999H162.555L165.087 7.056ZM170.727 0.599999H172.203V9H170.727V0.599999ZM182.047 4.788C182.047 5.38 181.939 5.936 181.723 6.456C181.507 6.968 181.199 7.412 180.799 7.788C180.407 8.164 179.935 8.46 179.383 8.676C178.839 8.892 178.239 9 177.583 9H174.451V0.599999H177.583C178.239 0.599999 178.839 0.707999 179.383 0.924C179.935 1.132 180.407 1.424 180.799 1.8C181.199 2.176 181.507 2.62 181.723 3.132C181.939 3.644 182.047 4.196 182.047 4.788ZM180.499 4.812C180.499 4.396 180.427 4.016 180.283 3.672C180.147 3.32 179.951 3.016 179.695 2.76C179.447 2.504 179.143 2.304 178.783 2.16C178.423 2.016 178.023 1.944 177.583 1.944H175.927V7.656H177.583C178.023 7.656 178.423 7.588 178.783 7.452C179.143 7.308 179.447 7.112 179.695 6.864C179.951 6.608 180.147 6.308 180.283 5.964C180.427 5.612 180.499 5.228 180.499 4.812ZM192.25 4.788C192.25 5.38 192.142 5.94 191.926 6.468C191.71 6.996 191.406 7.46 191.014 7.86C190.622 8.252 190.158 8.564 189.622 8.796C189.086 9.028 188.494 9.144 187.846 9.144C187.198 9.144 186.606 9.032 186.07 8.808C185.534 8.576 185.074 8.264 184.69 7.872C184.306 7.48 184.006 7.02 183.79 6.492C183.574 5.964 183.466 5.404 183.466 4.812C183.466 4.22 183.574 3.66 183.79 3.132C184.006 2.604 184.31 2.144 184.702 1.752C185.094 1.352 185.558 1.036 186.094 0.804C186.63 0.572 187.222 0.456 187.87 0.456C188.518 0.456 189.11 0.572 189.646 0.804C190.182 1.028 190.642 1.336 191.026 1.728C191.41 2.12 191.71 2.58 191.926 3.108C192.142 3.636 192.25 4.196 192.25 4.788ZM190.702 4.812C190.702 4.404 190.63 4.02 190.486 3.66C190.35 3.292 190.154 2.972 189.898 2.7C189.65 2.428 189.35 2.212 188.998 2.052C188.646 1.892 188.262 1.812 187.846 1.812C187.43 1.812 187.046 1.892 186.694 2.052C186.35 2.204 186.054 2.416 185.806 2.688C185.558 2.952 185.362 3.268 185.218 3.636C185.082 3.996 185.014 4.38 185.014 4.788C185.014 5.196 185.082 5.584 185.218 5.952C185.362 6.312 185.558 6.628 185.806 6.9C186.062 7.172 186.366 7.388 186.718 7.548C187.07 7.708 187.454 7.788 187.87 7.788C188.286 7.788 188.666 7.712 189.01 7.56C189.362 7.4 189.662 7.188 189.91 6.924C190.158 6.652 190.35 6.336 190.486 5.976C190.63 5.608 190.702 5.22 190.702 4.812ZM204.135 3.42C204.135 3.892 204.047 4.308 203.871 4.668C203.695 5.028 203.455 5.328 203.151 5.568C202.847 5.808 202.491 5.992 202.083 6.12C201.675 6.24 201.239 6.3 200.775 6.3H199.107V9H197.631V0.599999H200.943C201.431 0.599999 201.871 0.668 202.263 0.804C202.663 0.931999 202.999 1.12 203.271 1.368C203.551 1.616 203.763 1.912 203.907 2.256C204.059 2.6 204.135 2.988 204.135 3.42ZM202.635 3.456C202.635 2.952 202.471 2.576 202.143 2.328C201.815 2.072 201.375 1.944 200.823 1.944H199.107V4.968H200.823C201.383 4.968 201.823 4.832 202.143 4.56C202.471 4.28 202.635 3.912 202.635 3.456ZM214.058 4.788C214.058 5.38 213.95 5.94 213.734 6.468C213.518 6.996 213.214 7.46 212.822 7.86C212.43 8.252 211.966 8.564 211.43 8.796C210.894 9.028 210.302 9.144 209.654 9.144C209.006 9.144 208.414 9.032 207.878 8.808C207.342 8.576 206.882 8.264 206.498 7.872C206.114 7.48 205.814 7.02 205.598 6.492C205.382 5.964 205.274 5.404 205.274 4.812C205.274 4.22 205.382 3.66 205.598 3.132C205.814 2.604 206.118 2.144 206.51 1.752C206.902 1.352 207.366 1.036 207.902 0.804C208.438 0.572 209.03 0.456 209.678 0.456C210.326 0.456 210.918 0.572 211.454 0.804C211.99 1.028 212.45 1.336 212.834 1.728C213.218 2.12 213.518 2.58 213.734 3.108C213.95 3.636 214.058 4.196 214.058 4.788ZM212.51 4.812C212.51 4.404 212.438 4.02 212.294 3.66C212.158 3.292 211.962 2.972 211.706 2.7C211.458 2.428 211.158 2.212 210.806 2.052C210.454 1.892 210.07 1.812 209.654 1.812C209.238 1.812 208.854 1.892 208.502 2.052C208.158 2.204 207.862 2.416 207.614 2.688C207.366 2.952 207.17 3.268 207.026 3.636C206.89 3.996 206.822 4.38 206.822 4.788C206.822 5.196 206.89 5.584 207.026 5.952C207.17 6.312 207.366 6.628 207.614 6.9C207.87 7.172 208.174 7.388 208.526 7.548C208.878 7.708 209.262 7.788 209.678 7.788C210.094 7.788 210.474 7.712 210.818 7.56C211.17 7.4 211.47 7.188 211.718 6.924C211.966 6.652 212.158 6.336 212.294 5.976C212.438 5.608 212.51 5.22 212.51 4.812ZM222.97 9H221.23L219.166 6.072H217.318V9H215.842V0.599999H219.586C220.066 0.599999 220.498 0.664 220.882 0.792C221.274 0.912 221.602 1.088 221.866 1.32C222.138 1.544 222.346 1.824 222.49 2.16C222.634 2.488 222.706 2.856 222.706 3.264C222.706 3.616 222.654 3.932 222.55 4.212C222.454 4.484 222.318 4.728 222.142 4.944C221.966 5.152 221.754 5.332 221.506 5.484C221.266 5.628 220.998 5.74 220.702 5.82L222.97 9ZM221.206 3.348C221.206 2.884 221.054 2.536 220.75 2.304C220.446 2.064 220.018 1.944 219.466 1.944H217.318V4.764H219.478C220.006 4.764 220.426 4.636 220.738 4.38C221.05 4.124 221.206 3.78 221.206 3.348ZM225.906 4.308H224.31V2.664H225.906V4.308ZM225.906 9H224.31V7.356H225.906V9Z" fill="#40132e"/>
<g clip-path="url(#clip0_7_3327)">
<mask id="mask0_7_3327" style="mask-type:luminance" maskUnits="userSpaceOnUse" x="0" y="24" width="185" height="41">
<path d="M184.3 24H0V64.86H184.3V24Z" fill="white"/>
</mask>
<g mask="url(#mask0_7_3327)">
<mask id="mask1_7_3327" style="mask-type:luminance" maskUnits="userSpaceOnUse" x="0" y="24" width="185" height="41">
<path d="M184.3 24H0V64.86H184.3V24Z" fill="white"/>
</mask>
<g mask="url(#mask1_7_3327)">
<path d="M88.5 40.31C86.99 37.29 84.13 35.62 80.44 35.62C77.41 35.62 74.94 36.75 73.31 38.83C71.69 36.75 69.21 35.62 66.18 35.62C62.5 35.62 59.63 37.29 58.12 40.31C57.04 42.46 57.01 44.55 57.01 44.78V55.81C57.01 55.86 57.04 55.91 57.1 55.93L59.04 56.42H61.08V44.79C61.08 44.71 61.12 43.33 61.81 42.03C62.64 40.46 64.07 39.69 66.17 39.69C68.27 39.69 69.71 40.45 70.53 42.03C71.21 43.33 71.26 44.72 71.26 44.79V55.81C71.26 55.86 71.29 55.91 71.35 55.93L73.29 56.42H75.33V44.78C75.33 44.63 75.39 43.29 76.06 42.03C76.89 40.46 78.32 39.69 80.42 39.69C82.52 39.69 83.96 40.45 84.78 42.03C85.46 43.33 85.51 44.72 85.51 44.79V55.82C85.51 55.82 85.54 55.91 85.6 55.93L87.54 56.42H89.58V44.78C89.58 44.55 89.55 42.46 88.47 40.31" fill="#40132e"/>
<path d="M128.29 44.79V56.43H126.25L124.31 55.94C124.25 55.92 124.22 55.87 124.22 55.82V44.8C124.22 44.73 124.18 43.34 123.49 42.04C122.66 40.47 121.23 39.7 119.13 39.7C117.03 39.7 115.59 40.46 114.77 42.04C114.08 43.34 114.04 44.73 114.04 44.8V56.43H112L110.06 55.94C110 55.92 109.97 55.87 109.97 55.82V44.79C109.97 44.56 110 42.47 111.08 40.32C112.59 37.3 115.45 35.63 119.14 35.63C122.83 35.63 125.69 37.3 127.2 40.32C128.28 42.47 128.31 44.56 128.31 44.79" fill="#40132e"/>
<path d="M154.77 36.6701V47.7001C154.77 47.9301 154.74 50.0201 153.66 52.1701C152.15 55.1901 149.29 56.8601 145.6 56.8601C141.91 56.8601 139.05 55.1901 137.54 52.1701C136.46 50.0201 136.43 47.9301 136.43 47.7001V36.0601H138.47L140.41 36.5501C140.47 36.5701 140.5 36.6201 140.5 36.6701V47.6901C140.5 47.7601 140.54 49.1501 141.23 50.4501C142.06 52.0201 143.49 52.7901 145.59 52.7901C147.69 52.7901 149.13 52.0301 149.95 50.4501C150.64 49.1501 150.68 47.7601 150.68 47.6901V36.0601H152.72L154.66 36.5501C154.72 36.5701 154.75 36.6201 154.75 36.6701" fill="#40132e"/>
<path d="M101.82 40.74V56.43H99.78L97.84 55.94C97.78 55.92 97.75 55.87 97.75 55.82V40.13H99.79L101.73 40.62C101.79 40.64 101.82 40.69 101.82 40.74Z" fill="#40132e"/>
<path d="M101.82 32.59V36.06H99.78L97.84 35.57C97.78 35.55 97.75 35.5 97.75 35.45V31.98H99.79L101.73 32.47C101.79 32.49 101.82 32.54 101.82 32.59Z" fill="#40132e"/>
<path d="M184.3 40.74V56.43H182.26L180.32 55.94C180.26 55.92 180.23 55.87 180.23 55.82V40.13H182.27L184.21 40.62C184.27 40.64 184.3 40.69 184.3 40.74Z" fill="#40132e"/>
<path d="M184.3 32.59V36.06H182.26L180.32 35.57C180.26 35.55 180.23 35.5 180.23 35.45V31.98H182.27L184.21 32.47C184.27 32.49 184.3 32.54 184.3 32.59Z" fill="#40132e"/>
<path d="M172.08 52.81V56.88C168.4 56.88 165.53 55.21 164.02 52.19C162.94 50.04 162.91 47.95 162.91 47.72V31.99H164.95L166.89 32.48C166.95 32.5 166.98 32.55 166.98 32.6V36.07H171.05V40.14H165.06C164.92 40.14 164.89 40.34 165.03 40.38L166.97 40.87V47.72C166.97 47.79 167.01 49.18 167.7 50.48C168.53 52.05 169.96 52.82 172.06 52.82" fill="#40132e"/>
<path d="M39.81 28.87L20.36 24H0V58.68C0 59.19 0.29 59.7 0.92 59.85L20.36 64.72H40.72V30.04C40.72 29.54 40.43 29.02 39.8 28.87M20.33 50.5V55.8C20.33 56.62 19.72 57.3 18.91 57.39C18.82 57.4 18.76 57.4 18.72 57.4C18.67 57.4 18.61 57.4 18.54 57.39C17.87 57.32 17.34 56.85 17.17 56.19L15.44 49.28L8.53 47.55C7.86 47.38 7.4 46.85 7.33 46.18C7.32 46.1 7.32 46.04 7.32 46C7.32 45.96 7.32 45.9 7.33 45.82C7.42 45 8.1 44.39 8.92 44.39H20.33V50.51V50.5ZM31.47 43.34V55.14C31.47 56.33 30.62 57.26 29.44 57.39C29.33 57.41 29.24 57.41 29.19 57.41C29.14 57.41 29.06 57.41 28.95 57.39C28 57.3 27.23 56.64 26.99 55.69L23.39 41.32L9.02 37.72C8.07 37.48 7.41 36.72 7.32 35.76C7.3 35.66 7.3 35.57 7.3 35.52C7.3 35.46 7.3 35.38 7.32 35.27C7.44 34.09 8.38 33.24 9.57 33.24H31.46V43.34H31.47Z" fill="#40132e"/>
<path d="M98.8401 64.86C98.5101 64.86 98.2401 64.83 98.0201 64.76C97.8001 64.69 97.5701 64.6 97.3401 64.48V63.79C97.5301 63.89 97.6901 63.98 97.8401 64.05C97.9801 64.12 98.1301 64.18 98.2801 64.21C98.4301 64.24 98.6001 64.26 98.8001 64.26C99.1001 64.26 99.3501 64.19 99.5401 64.06C99.7301 63.93 99.8201 63.76 99.8201 63.55C99.8201 63.38 99.7701 63.25 99.6801 63.16C99.5901 63.07 99.4701 62.99 99.3201 62.93C99.1801 62.87 99.0201 62.81 98.8701 62.74C98.7001 62.69 98.5201 62.64 98.3401 62.58C98.1601 62.52 98.0001 62.45 97.8501 62.35C97.7001 62.26 97.5801 62.14 97.4901 61.99C97.4001 61.84 97.3501 61.65 97.3501 61.42C97.3501 61.19 97.4001 61 97.4901 60.83C97.5801 60.67 97.7001 60.53 97.8601 60.43C98.0101 60.32 98.1801 60.25 98.3701 60.2C98.5601 60.15 98.7401 60.13 98.9301 60.13C99.2001 60.13 99.4301 60.17 99.6301 60.24C99.8201 60.31 100.02 60.39 100.23 60.48V61.13C100 61.01 99.8001 60.91 99.6201 60.84C99.4401 60.76 99.2301 60.73 98.9801 60.73C98.7301 60.73 98.5101 60.78 98.3201 60.88C98.1201 60.98 98.0301 61.13 98.0301 61.34C98.0301 61.51 98.0801 61.64 98.1801 61.74C98.2801 61.84 98.4101 61.92 98.5701 61.97C98.7301 62.03 98.9101 62.08 99.0901 62.14C99.2401 62.19 99.4001 62.24 99.5601 62.3C99.7201 62.36 99.8701 62.43 100.01 62.53C100.15 62.62 100.26 62.75 100.35 62.9C100.44 63.05 100.48 63.24 100.48 63.48C100.48 63.8 100.4 64.06 100.24 64.27C100.08 64.48 99.8701 64.63 99.6201 64.73C99.3701 64.83 99.1201 64.87 98.8601 64.87" fill="#40132e"/>
<path d="M107.61 64.7999C107.29 64.7999 107.02 64.6999 106.81 64.5099C106.59 64.3099 106.48 64.0199 106.48 63.6399V60.82H105.69V60.22H106.48V58.95H107.13V60.22H108.29V60.82H107.13V63.43C107.13 63.68 107.17 63.87 107.25 64C107.33 64.13 107.49 64.1899 107.73 64.1899C107.84 64.1899 107.94 64.18 108.05 64.16C108.15 64.14 108.24 64.11 108.3 64.08V64.6899C108.22 64.7199 108.11 64.75 107.98 64.77C107.85 64.79 107.73 64.7999 107.61 64.7999Z" fill="#40132e"/>
<path d="M115.88 64.86C115.48 64.86 115.14 64.79 114.86 64.65C114.58 64.51 114.36 64.31 114.21 64.05C114.06 63.79 113.99 63.46 113.99 63.07V60.22H114.64V62.93C114.64 63.39 114.74 63.72 114.94 63.94C115.14 64.15 115.45 64.26 115.87 64.26C116.29 64.26 116.6 64.15 116.8 63.94C117 63.73 117.1 63.39 117.1 62.93V60.22H117.75V63.07C117.75 63.64 117.59 64.08 117.26 64.39C116.93 64.7 116.47 64.86 115.86 64.86" fill="#40132e"/>
<path d="M125.59 64.8599C125.37 64.8599 125.14 64.8299 124.9 64.7699C124.66 64.7099 124.43 64.5899 124.22 64.4199C124.01 64.2499 123.83 63.9999 123.7 63.6799C123.56 63.3599 123.5 62.9399 123.5 62.4199C123.5 61.7199 123.67 61.1699 124.01 60.7599C124.35 60.3499 124.87 60.1499 125.56 60.1499C125.69 60.1499 125.85 60.1699 126.03 60.1999C126.21 60.2399 126.39 60.2799 126.56 60.3399C126.73 60.3899 126.88 60.4499 126.99 60.5099L126.76 60.7399V58.3199H127.41V63.9499C127.41 64.1199 127.35 64.2599 127.23 64.3799C127.11 64.4999 126.96 64.5899 126.77 64.6599C126.58 64.7299 126.38 64.7799 126.17 64.8099C125.96 64.8399 125.76 64.8599 125.57 64.8599M125.57 64.2599C125.88 64.2599 126.16 64.2199 126.39 64.1499C126.62 64.0799 126.74 63.9899 126.74 63.8799V61.0499C126.55 60.9399 126.35 60.8599 126.14 60.8099C125.93 60.7599 125.72 60.7299 125.53 60.7299C125.2 60.7299 124.94 60.7999 124.74 60.9399C124.54 61.0799 124.39 61.2799 124.3 61.5299C124.21 61.7799 124.16 62.0699 124.16 62.3999C124.16 62.7299 124.2 63.0299 124.27 63.3099C124.34 63.5899 124.48 63.8199 124.69 63.9899C124.89 64.1599 125.19 64.2499 125.58 64.2499" fill="#40132e"/>
<path d="M133.38 58.71H134.1V59.42H133.38V58.71ZM133.42 60.23H134.07V64.74H133.42V60.23Z" fill="#40132e"/>
<path d="M141.91 64.86C141.21 64.86 140.68 64.65 140.34 64.23C140 63.81 139.83 63.23 139.83 62.48C139.83 61.73 140.01 61.11 140.37 60.72C140.73 60.33 141.24 60.13 141.89 60.13C142.38 60.13 142.77 60.23 143.08 60.42C143.39 60.62 143.61 60.89 143.76 61.24C143.9 61.59 143.98 62 143.98 62.47C143.98 63.21 143.8 63.79 143.44 64.21C143.08 64.63 142.57 64.84 141.91 64.84M141.91 64.24C142.28 64.24 142.56 64.16 142.77 64C142.97 63.84 143.12 63.63 143.21 63.36C143.3 63.09 143.34 62.79 143.34 62.46C143.34 62.1 143.29 61.8 143.2 61.53C143.11 61.27 142.96 61.06 142.75 60.92C142.54 60.78 142.26 60.7 141.91 60.7C141.56 60.7 141.27 60.78 141.06 60.93C140.86 61.09 140.71 61.3 140.62 61.56C140.53 61.82 140.49 62.12 140.49 62.45C140.49 62.98 140.6 63.41 140.81 63.74C141.02 64.07 141.39 64.23 141.91 64.23" fill="#40132e"/>
</g>
</g>
<path d="M237.94 24.58H227.28V64.28H237.94V50.03H247.24V42.21H237.94V24.58Z" fill="#40132e"/>
<path d="M245.02 24.58H239.53V32.5H245.02V37.67H255.37V24.58H249.45H245.02Z" fill="#40132e"/>
<path d="M266.99 24.58H256.64V64.28H266.99V24.58Z" fill="#40132e"/>
<path d="M269.1 24.58V32.5H276.59V56.36H269.1V64.28H280.5L286.84 56.36V32.5L280.5 24.58H269.1Z" fill="#40132e"/>
<path d="M309.12 24.58L302.04 38.62V58.05L319.99 24.58H309.12Z" fill="#40132e"/>
<path d="M311.97 43.48L305.74 54.99L308.85 64.28H320.52L311.97 43.48Z" fill="#40132e"/>
<path d="M300.25 24.58H289.9V64.28H300.25V24.58Z" fill="#40132e"/>
<path d="M211.9 41.32H207.81V37.23H203.76V41.32H199.68V45.37H203.76V49.45H207.81V45.37H211.9V41.32Z" fill="#40132e"/>
</g>
<defs>
<clipPath id="clip0_7_3327">
<rect width="320.52" height="40.86" fill="white" transform="translate(0 24)"/>
</clipPath>
</defs>
</svg>
