<svg xmlns="http://www.w3.org/2000/svg" viewBox="0 0 1440 320">
  <path fill="#16278E" fill-opacity="132212.33" d="M0,96L30,90.7C60,85,120,75,180,106.7C240,139,300,213,360,240C420,267,480,245,540,229.3C600,213,660,203,720,192C780,181,840,171,900,170.7C960,171,1020,181,1080,170.7C1140,160,1200,128,1260,106.7C1320,85,1380,75,1410,69.3L1440,64L1440,320L1410,320C1380,320,1320,320,1260,320C1200,320,1140,320,1080,320C1020,320,960,320,900,320C840,320,780,320,720,320C660,320,600,320,540,320C480,320,420,320,360,320C300,320,240,320,180,320C120,320,60,320,30,320L0,320Z"></path>
</svg>